<svg width="4" height="20" viewBox="0 0 4 20" fill="none" xmlns="http://www.w3.org/2000/svg">
<path d="M2 7.80488C0.888889 7.80488 0 8.78049 0 10C0 11.2195 0.888889 12.1951 2 12.1951C3.11111 12.1951 4 11.2195 4 10C4 8.78049 3.11111 7.80488 2 7.80488ZM4 2.19512C4 3.41463 3.11111 4.39024 2 4.39024C0.888889 4.39024 0 3.41463 0 2.19512C0 0.97561 0.888889 0 2 0C3.11111 0 4 0.97561 4 2.19512ZM4 17.8049C4 19.0244 3.11111 20 2 20C0.888889 20 0 19.0244 0 17.8049C0 16.5854 0.888889 15.6098 2 15.6098C3.11111 15.6098 4 16.5854 4 17.8049Z" fill="#424242"/>
</svg>
